# AST/ASF file generated using VICON BodyLanguage
# -----------------------------------------------
:version 1.10
:name VICON
:units
  mass 1.0
  length 0.45
  angle deg
:documentation
   .ast/.asf automatically generated from VICON data using
   VICON BodyBuilder and BodyLanguage model FoxedUp or BRILLIANT.MOD
:root
   order TX TY TZ RX RY RZ
   axis XYZ
   position 0 0 0  
   orientation 0 0 0 
:bonedata
  begin
     id 1 
     name lhipjoint
     direction 0.655637 -0.713449 0.247245 
     length 2.52691 
     axis 0 0 0  XYZ
  end
  begin
     id 2 
     name lfemur
     direction 0.34202 -0.939693 0  
     length 7.59371  
     axis 0 0 20  XYZ
    dof rx ry rz
    limits (-160.0 20.0)
           (-70.0 70.0)
           (-60.0 70.0)
  end
  begin
     id 3 
     name ltibia
     direction 0.34202 -0.939693 0   
     length 7.28717   
     axis 0 0 20   XYZ
    dof rx
    limits (-10.0 170.0)
  end
  begin
     id 4 
     name lfoot
     direction 0.0886837 -0.243657 0.965798   
     length 2.2218   
     axis -90 7.62852e-016 20   XYZ
    dof rx rz
    limits (-45.0 90.0)
           (-70.0 20.0)
  end
  begin
     id 5 
     name ltoes
     direction 1.53547e-011 -4.22004e-011 1   
     length 1.11249   
     axis -90 7.62852e-016 20   XYZ
    dof rx
    limits (-90.0 20.0)
  end
  begin
     id 6 
     name rhipjoint
     direction -0.645062 -0.722004 0.250209   
     length 2.49697  
     axis 0 0 0  XYZ 
  end
  begin
     id 7 
     name rfemur
     direction -0.34202 -0.939693 0   
     length 7.58734   
     axis 0 0 -20   XYZ
    dof rx ry rz
    limits (-160.0 20.0)
           (-70.0 70.0)
           (-70.0 60.0)
  end
  begin
     id 8 
     name rtibia
     direction -0.34202 -0.939693 0   
     length 7.21538   
     axis 0 0 -20   XYZ
    dof rx
    limits (-10.0 170.0)
 end
 begin
     id 9 
     name rfoot
     direction -0.102907 -0.282735 0.953662   
     length 2.23735  
     axis -90 -7.62852e-016 -20   XYZ
    dof rx rz
    limits (-45.0 90.0)
           (-20.0 70.0)
  end
  begin
     id 10 
     name rtoes
     direction -1.5354e-011 -4.21751e-011 1   
     length 1.11569   
     axis -90 -7.62852e-016 -20   XYZ
    dof rx
    limits (-90.0 20.0)
  end
  begin
     id 11 
     name lowerback
     direction 0.00952301 0.997604 -0.0685217   
     length 2.05943   
     axis 0 0 0   XYZ
    dof rx ry rz
    limits (-20.0 45.0)
           (-30.0 30.0)
           (-30.0 30.0)
  end
  begin
     id 12 
     name upperback
     direction 0.00494399 0.999577 -0.0286701   
     length 2.06523   
     axis 0 0 0   XYZ
    dof rx ry rz
    limits (-20.0 45.0)
           (-30.0 30.0)
           (-30.0 30.0)
  end
  begin
     id 13 
     name thorax
     direction 0.000729686 0.999992 0.00388603   
     length 2.06807   
     axis 0 0 0   XYZ
    dof rx ry rz
    limits (-20.0 45.0)
           (-30.0 30.0)
           (-30.0 30.0)
  end
  begin
     id 14 
     name lowerneck
     direction 0.00452882 0.995459 0.0950816   
     length 1.57426   
     axis 0 0 0   XYZ
    dof rx ry rz
    limits (-20.0 45.0)
           (-30.0 30.0)
           (-30.0 30.0)
  end
  begin
     id 15 
     name upperneck
     direction 0.021922 0.997711 -0.0639762   
     length 1.56399   
     axis 0 0 0   XYZ
    dof rx ry rz
    limits (-20.0 45.0)
           (-30.0 30.0)
           (-30.0 30.0)
  end
  begin
     id 16
     name head
     direction 0.008024 0.999444 -0.0323691  
     length 1.6265  
     axis 0 0 0   XYZ
    dof rx ry rz
    limits (-20.0 45.0)
           (-30.0 30.0)
           (-30.0 30.0)
  end
  begin
     id 17 
     name lclavicle
     direction 0.967826 0.247107 -0.0474446  
     length 3.6598  
     axis 0 0 0   XYZ
    dof ry rz
    limits (-20.0 10.0)
           (0.0 20.0)
  end
  begin
     id 18 
     name lhumerus
     direction 1 -4.48971e-011 -2.90544e-027   
     length 4.86513   
     axis 180 -30 -90   XYZ
    dof rx ry rz
    limits (-60.0 90.0)
           (-90.0 90.0)
           (-90.0 90.0)
  end
  begin
     id 19
     name lradius
     direction 1 -4.48958e-011 1.79638e-026   
     length 3.35554   
     axis 180 -30 -90   XYZ
    dof rx
    limits (-10.0 170.0)
  end
  begin
     id 20
     name lwrist
     direction 1 -4.48952e-011 3.34345e-026   
     length 1.67777   
     axis -2.22354e-014 90 90   XYZ
    dof ry
    limits (-180.0 0.0)
 end
  begin
     id 21 
     name lhand
     direction 1 -4.49055e-011 6.6869e-026   
     length 0.661175   
     axis -4.26681e-014 90 90   XYZ
    dof rx rz
    limits (-90.0 90.0)
           (-45.0 45.0)
  end
  begin
     id 22 
     name lfingers
     direction 1 -4.48731e-011 1.33738e-025   
     length 0.533057   
     axis -8.53362e-014 90 90   XYZ
    dof rx
    limits (0.0 90.0)
  end
  begin
     id 23
     name lthumb
     direction 0.707107 -6.35005e-011 0.707107   
     length 0.765366   
     axis -90 45 2.85299e-015   XYZ
    dof rx rz
    limits (-45.0 45.0)
           (-45.0 45.0)
  end
  begin
     id 24 
     name rclavicle
     direction -0.973174 0.211421 -0.0907389   
     length 3.59444  
     axis 0 0 0   XYZ 
    dof ry rz
    limits (-10.0 20.0)
           (-20.0 0.0)
  end
  begin
     id 25 
     name rhumerus
     direction -1 -4.48964e-011 1.56311e-027  
     length 5.02649   
     axis 180 30 90   XYZ
    dof rx ry rz
    limits (-90.0 60.0)
           (-90.0 90.0)
           (-90.0 90.0)
  end
  begin
     id 26 
     name rradius
     direction -1 -4.48948e-011 2.01724e-026   
     length 3.36431   
     axis 180 30 90   XYZ
    dof rx
    limits (-10.0 170.0)
  end
  begin
     id 27 
     name rwrist
     direction -1 -4.49008e-011 3.34345e-026   
     length 1.68216   
     axis -2.22354e-014 -90 -90   XYZ
    dof ry
    limits (-180.0 0.0)
  end
  begin
     id 28
     name rhand
     direction -1 -4.49013e-011 6.6869e-026   
     length 0.730406   
     axis -4.26681e-014 -90 -90   XYZ
    dof rx rz
    limits (-90.0 90.0)
           (-45.0 45.0)
  end
  begin
     id 29
     name rfingers
     direction -1 -4.48867e-011 1.33738e-025   
     length 0.588872   
     axis -8.53362e-014 -90 -90   XYZ
    dof rx
    limits (0.0 90.0)
  end
  begin
     id 30
     name rthumb
     direction -0.707107 -6.34907e-011 0.707107   
     length 0.845506   
     axis -90 -45 -2.85299e-015   XYZ
    dof rx rz
    limits (-45.0 45.0)
           (-45.0 45.0)
  end
:hierarchy
  begin
    root lhipjoint rhipjoint lowerback
    lhipjoint lfemur
    lfemur ltibia
    ltibia lfoot
    lfoot ltoes
    rhipjoint rfemur
    rfemur rtibia
    rtibia rfoot
    rfoot rtoes
    lowerback upperback
    upperback thorax
    thorax lowerneck lclavicle rclavicle
    lowerneck upperneck
    upperneck head
    lclavicle lhumerus
    lhumerus lradius
    lradius lwrist
    lwrist lhand lthumb
    lhand lfingers
    rclavicle rhumerus
    rhumerus rradius
    rradius rwrist
    rwrist rhand rthumb
    rhand rfingers
  end

#!OML:ASF H:\Terrain\Patient Classification 1\Takeo\Monday\TakeoMonday.ASF
:FULLY-SPECIFIED
:DEGREES
17
root 9.48339 17.8554 -0.854572 1.63181 -3.18916 0.115092
lowerback 8.98407 -1.04038 0.850494
upperback 3.58853 -1.30929 0.128049
thorax -1.33469 -0.649328 -0.215494
lowerneck -11.35 -1.55957 -3.9543
upperneck -3.34698 -1.63432 4.70115
head 0.962607 -0.697244 2.11297
rclavicle -9.74045e-015 4.27387e-015
rhumerus -28.8457 15.7408 -92.1628
rradius 50.0412
rwrist -18.0062
rhand -26.5209 24.2852
rfingers 7.12502
rthumb 0.0426291 -5.69449
lclavicle -9.74045e-015 4.27387e-015
lhumerus -32.316 -14.206 92.3828
lradius 59.9939
lwrist 26.5067
lhand -27.7176 11.4507
lfingers 7.12502
lthumb -1.11313 41.4275
rfemur -9.9952 7.90073 22.0601
rtibia 21.5932
rfoot -13.4883 -11.0003
rtoes 2.47667
lfemur -8.77209 -3.61406 -22.9367
ltibia 22.4279
lfoot -14.3241 14.7591
ltoes 1.04635
18
root 9.4859 17.856 -0.88905 2.25248 -3.06962 0.22958
lowerback 9.22222 -1.08401 0.744973
upperback 3.57672 -1.37478 0.0477497
thorax -1.47807 -0.682402 -0.227632
lowerneck -11.1964 -1.40554 -3.84741
upperneck -3.95206 -1.43034 4.64014
head 0.728654 -0.601118 2.07976
rclavicle 7.46685e-015 -2.18166e-014
rhumerus -28.5053 16.6355 -92.074
rradius 49.5497
rwrist -17.7716
rhand -26.1881 24.9256
rfingers 7.12502
rthumb 0.364093 -5.05384
lclavicle 7.46685e-015 -2.18166e-014
lhumerus -32.5043 -14.8059 92.046
lradius 60.6471
lwrist 26.0796
lhand -27.8234 9.95476
lfingers 7.12502
lthumb -1.21535 39.931
rfemur -11.1009 7.8551 21.8243
rtibia 22.17
rfoot -13.5655 -11.1286
rtoes 2.02939
lfemur -9.71499 -3.66409 -23.0041
ltibia 22.6102
lfoot -14.2268 14.6887
ltoes 0.962086
19
root 9.49477 17.8553 -0.919959 2.7045 -3.00096 -0.117309
lowerback 9.6949 -1.09837 1.20238
upperback 3.60235 -1.34679 0.0591619
thorax -1.72065 -0.666543 -0.466814
lowerneck -10.9854 -1.31352 -3.77175
upperneck -4.66881 -1.30345 4.67472
head 0.456194 -0.542921 2.08032
rclavicle 1.12624e-014 1.80646e-014
rhumerus -28.3292 17.3269 -91.9652
rradius 49.0685
rwrist -17.758
rhand -26.1482 25.6373
rfingers 7.12502
rthumb 0.402595 -4.34202
lclavicle 1.12624e-014 1.80646e-014
lhumerus -32.6037 -15.4613 91.6894
lradius 60.9135
lwrist 25.7443
lhand -28.0551 8.00816
lfingers 7.12502
lthumb -1.43915 37.983
rfemur -11.8883 7.78636 22.1227
rtibia 22.5559
rfoot -13.6962 -11.2688
rtoes 0.486703
lfemur -10.5336 -3.70034 -22.5913
ltibia 23.036
lfoot -14.2017 14.6195
ltoes 1.22937
20
root 9.49876 17.8585 -0.948518 3.0673 -3.01787 -0.313981
lowerback 10.3727 -1.05601 1.40822
upperback 3.58227 -1.25868 0.0900366
thorax -2.11512 -0.623805 -0.548036
lowerneck -10.8749 -1.21726 -3.87028
upperneck -5.12978 -1.15314 4.84807
head 0.286508 -0.466943 2.16034
rclavicle 1.71452e-015 5.19325e-015
rhumerus -28.447 17.8688 -91.7901
rradius 48.6126
rwrist -17.7175
rhand -26.2053 26.2348
rfingers 7.12502
rthumb 0.347437 -3.74471
lclavicle 1.71452e-015 5.19325e-015
lhumerus -32.8473 -16.0918 91.3934
lradius 60.9361
lwrist 25.398
lhand -28.3858 6.46309
lfingers 7.12502
lthumb -1.75851 36.4356
rfemur -12.537 7.75423 22.283
rtibia 22.83
rfoot -13.6386 -11.2867
rtoes -0.479899
lfemur -11.3482 -3.67963 -22.3408
ltibia 23.6249
lfoot -14.2103 14.602
ltoes 1.16962
21
root 9.49437 17.8543 -0.979218 3.4837 -3.0993 -0.292987
lowerback 10.9631 -0.959109 1.24153
upperback 3.57042 -1.13653 0.122584
thorax -2.44452 -0.565056 -0.425755
lowerneck -10.5761 -1.15365 -4.10531
upperneck -5.73124 -1.03184 5.06826
head 0.0431302 -0.405708 2.28
rclavicle 5.46658e-016 -9.06955e-015
rhumerus -28.6921 18.5988 -91.5124
rradius 48.2377
rwrist -17.7786
rhand -26.4105 26.3634
rfingers 7.12502
rthumb 0.149282 -3.61629
lclavicle 5.46658e-016 -9.06955e-015
lhumerus -33.1288 -16.7352 91.0587
lradius 60.8013
lwrist 25.0819
lhand -28.7939 5.97351
lfingers 7.12502
lthumb -2.15266 35.9424
rfemur -13.2123 7.95747 22.2004
rtibia 23.0516
rfoot -13.6204 -11.3835
rtoes -0.508131
lfemur -12.2834 -3.54024 -22.304
ltibia 24.2561
lfoot -14.2745 14.5491
ltoes 1.13196
22
root 9.48922 17.846 -1.01213 3.92708 -3.21431 -0.191773
lowerback 11.3556 -0.847733 0.968413
upperback 3.7182 -1.01463 0.114314
thorax -2.49913 -0.50457 -0.292064
lowerneck -10.3848 -1.04585 -4.19762
upperneck -6.48872 -0.858432 5.23949
head -0.237175 -0.320958 2.36029
rclavicle -5.13734e-015 1.77912e-014
rhumerus -28.6411 19.4458 -91.1841
rradius 47.7455
rwrist -18.0786
rhand -26.7108 26.2478
rfingers 7.12502
rthumb -0.140725 -3.73185
lclavicle -5.13734e-015 1.77912e-014
lhumerus -33.1108 -17.3619 90.5275
lradius 60.4036
lwrist 24.9382
lhand -29.2748 5.78619
lfingers 7.12502
lthumb -2.61712 35.7499
rfemur -13.9752 8.20224 22.0182
rtibia 23.2906
rfoot -13.5809 -11.5048
rtoes -0.322383
lfemur -13.2118 -3.34026 -22.3653
ltibia 24.8478
lfoot -14.2648 14.4868
ltoes 0.571644
23
root 9.48697 17.8438 -1.04055 4.39608 -3.17722 -0.0331339
lowerback 11.7154 -0.789544 0.706329
upperback 3.87421 -0.963716 0.115768
thorax -2.52837 -0.479372 -0.146197
lowerneck -10.3066 -0.958698 -4.47965
upperneck -7.15411 -0.688486 5.50919
head -0.468544 -0.231686 2.50959
rclavicle -3.35449e-015 4.87022e-015
rhumerus -28.6451 20.1568 -90.783
rradius 47.1485
rwrist -18.2556
rhand -26.7868 26.1528
rfingers 7.12502
rthumb -0.214183 -3.82679
lclavicle -3.35449e-015 4.87022e-015
lhumerus -33.1522 -17.8705 90.0244
lradius 59.8089
lwrist 25.0167
lhand -29.8995 5.26263
lfingers 7.12502
lthumb -3.22043 35.2181
rfemur -14.8093 8.18912 21.7823
rtibia 23.6655
rfoot -13.5928 -11.5822
rtoes -0.261408
lfemur -14.1471 -3.26682 -22.5068
ltibia 25.3813
lfoot -14.1251 14.4271
ltoes -0.704066
24
root 9.49106 17.8446 -1.06616 5.01877 -2.98337 -0.0752937
lowerback 12.0622 -0.796283 0.845222
upperback 3.91756 -0.951704 0.147782
thorax -2.67373 -0.473276 -0.188438
lowerneck -10.2822 -0.922747 -4.99643
upperneck -7.62902 -0.559361 6.00261
head -0.627886 -0.154868 2.77867
rclavicle -1.45361e-015 5.96354e-015
rhumerus -28.9878 20.8004 -90.3665
rradius 46.6428
rwrist -18.3502
rhand -26.7534 26.2027
rfingers 7.12502
rthumb -0.181915 -3.77701
lclavicle -1.45361e-015 5.96354e-015
lhumerus -33.4197 -18.3116 89.4992
lradius 59.2278
lwrist 25.3247
lhand -30.2579 5.07491
lfingers 7.12502
lthumb -3.56655 35.0248
rfemur -15.8249 8.03621 21.7143
rtibia 24.1672
rfoot -13.8203 -11.6328
rtoes -0.130497
lfemur -15.2668 -3.30524 -22.4314
ltibia 25.8825
lfoot -14.0754 14.3118
ltoes -0.77153
25
root 9.49848 17.8397 -1.09851 5.74202 -2.74075 -0.151995
lowerback 12.493 -0.845305 1.10563
upperback 3.88771 -0.979133 0.141854
thorax -2.94374 -0.487234 -0.331121
lowerneck -10.2677 -0.895117 -5.48376
upperneck -8.11631 -0.43956 6.53181
head -0.792156 -0.0831018 3.05819
rclavicle -2.2649e-014 -6.73383e-015
rhumerus -29.4878 21.285 -90.0022
rradius 46.1141
rwrist -18.4723
rhand -26.9707 26.4696
rfingers 7.12502
rthumb -0.391829 -3.50975
lclavicle -2.2649e-014 -6.73383e-015
lhumerus -33.8281 -18.4079 88.8428
lradius 58.6641
lwrist 25.4216
lhand -29.5903 6.34609
lfingers 7.12502
lthumb -2.92182 36.3058
rfemur -16.9886 7.84625 21.6552
rtibia 24.6729
rfoot -14.0366 -11.6664
rtoes -0.33567
lfemur -16.5218 -3.36609 -22.3097
ltibia 26.469
lfoot -14.2796 14.1348
ltoes 0.28747
26
root 9.50453 17.8258 -1.13216 6.25451 -2.60849 -0.138192
lowerback 13.1553 -0.86296 1.18201
upperback 3.92976 -0.983711 0.120746
thorax -3.26135 -0.490246 -0.386643
lowerneck -10.0459 -0.891884 -5.75746
upperneck -8.91736 -0.379553 6.76125
head -1.09433 -0.0512367 3.19701
rclavicle -6.11263e-015 5.96354e-016
rhumerus -30.0478 21.6184 -89.6194
rradius 45.4918
rwrist -18.5319
rhand -27.2616 26.7024
rfingers 7.12502
rthumb -0.672706 -3.27629
lclavicle -6.11263e-015 5.96354e-016
lhumerus -34.4112 -17.9946 88.1824
lradius 58.1597
lwrist 25.4109
lhand -28.5823 7.95003
lfingers 7.12502
lthumb -1.94831 37.9209
rfemur -17.9153 7.58478 21.5892
rtibia 25.2365
rfoot -14.0523 -11.6388
rtoes -1.07184
lfemur -17.5385 -3.31949 -22.2959
ltibia 27.1781
lfoot -14.678 13.8621
ltoes 0.992047
27
root 9.50884 17.8096 -1.16548 6.69066 -2.53041 -0.308156
lowerback 13.8059 -0.860417 1.40083
upperback 4.07779 -0.9395 0.169469
thorax -3.46063 -0.468923 -0.458852
lowerneck -9.82555 -0.826903 -5.86427
upperneck -9.79403 -0.257987 6.77782
head -1.42889 0.00760802 3.23448
rclavicle -6.57232e-015 -1.51573e-015
rhumerus -30.5316 22.0117 -89.1393
rradius 44.7977
rwrist -18.2819
rhand -27.4727 27.2319
rfingers 7.12502
rthumb -0.876604 -2.74601
lclavicle -6.57232e-015 -1.51573e-015
lhumerus -34.9444 -17.68 87.4894
lradius 57.5844
lwrist 25.9568
lhand -28.2362 8.43944
lfingers 7.12502
lthumb -1.61402 38.4131
rfemur -18.8791 7.42261 21.7358
rtibia 25.9855
rfoot -13.9654 -11.5793
rtoes -1.01675
lfemur -18.4913 -3.1195 -22.098
ltibia 27.9189
lfoot -14.869 13.5262
ltoes 0.934847
28
root 9.50775 17.7901 -1.20308 7.36585 -2.42138 -0.500969
lowerback 14.2946 -0.85517 1.60693
upperback 4.19736 -0.89281 0.230978
thorax -3.60027 -0.446379 -0.513429
lowerneck -9.75035 -0.734202 -5.858
upperneck -10.7146 -0.108722 6.65158
head -1.75791 0.0807355 3.20281
rclavicle -1.00138e-014 -8.34896e-015
rhumerus -30.8186 22.3658 -88.5633
rradius 44.0358
rwrist -17.9558
rhand -27.4251 26.9992
rfingers 7.12502
rthumb -0.830671 -2.97896
lclavicle -1.00138e-014 -8.34896e-015
lhumerus -35.24 -17.6663 86.6594
lradius 56.5811
lwrist 26.7136
lhand -27.9497 8.26615
lfingers 7.12502
lthumb -1.33735 38.2417
rfemur -20.2527 7.46295 21.8585
rtibia 26.832
rfoot -13.8928 -11.7107
rtoes -1.10002
lfemur -19.8055 -2.82456 -21.8627
ltibia 28.6951
lfoot -14.9037 13.1819
ltoes 0.22724
